<mxfile host="app.diagrams.net" agent="Mozilla/5.0 (Macintosh; Intel Mac OS X 10_15_7) AppleWebKit/537.36 (KHTML, like Gecko) Chrome/134.0.0.0 Safari/537.36" version="27.0.6">
  <diagram name="Карта" id="bd83a815-5ea8-2e97-e5ec-87c9f400f2fa">
    <mxGraphModel dx="1298" dy="806" grid="1" gridSize="10" guides="1" tooltips="1" connect="1" arrows="1" fold="1" page="1" pageScale="1.5" pageWidth="1169" pageHeight="826" background="none" math="0" shadow="0">
      <root>
        <mxCell id="0" style=";html=1;" />
        <mxCell id="1" style=";html=1;" parent="0" />
        <mxCell id="1516e18e63f93b96-3" value="Карта текущего IT ландшафта" style="text;strokeColor=none;fillColor=none;html=1;fontSize=24;fontStyle=1;verticalAlign=middle;align=center;rounded=0;shadow=1;" parent="1" vertex="1">
          <mxGeometry x="465" y="140" width="780" height="40" as="geometry" />
        </mxCell>
        <mxCell id="YgdcgZc3MoA_H59l_4bB-15" value="Assets" style="childLayout=tableLayout;recursiveResize=0;strokeColor=#82b366;fillColor=#d5e8d4;shadow=1;glass=0;" parent="1" vertex="1">
          <mxGeometry x="220" y="211" width="1350" height="742.0000000000005" as="geometry" />
        </mxCell>
        <mxCell id="YgdcgZc3MoA_H59l_4bB-16" style="shape=tableRow;horizontal=0;startSize=0;swimlaneHead=0;swimlaneBody=0;top=0;left=0;bottom=0;right=0;dropTarget=0;collapsible=0;recursiveResize=0;expand=0;fontStyle=0;strokeColor=inherit;fillColor=#ffffff;" parent="YgdcgZc3MoA_H59l_4bB-15" vertex="1">
          <mxGeometry width="1350" height="40" as="geometry" />
        </mxCell>
        <mxCell id="YgdcgZc3MoA_H59l_4bB-17" value="" style="connectable=0;recursiveResize=0;strokeColor=inherit;fillColor=#A7C942;align=center;fontStyle=1;fontColor=#FFFFFF;html=1;" parent="YgdcgZc3MoA_H59l_4bB-16" vertex="1">
          <mxGeometry width="210" height="40" as="geometry">
            <mxRectangle width="210" height="40" as="alternateBounds" />
          </mxGeometry>
        </mxCell>
        <mxCell id="YgdcgZc3MoA_H59l_4bB-18" value="Продажи колл-центр" style="connectable=0;recursiveResize=0;strokeColor=inherit;fillColor=#A7C942;align=center;fontStyle=1;fontColor=#FFFFFF;html=1;" parent="YgdcgZc3MoA_H59l_4bB-16" vertex="1">
          <mxGeometry x="210" width="170" height="40" as="geometry">
            <mxRectangle width="170" height="40" as="alternateBounds" />
          </mxGeometry>
        </mxCell>
        <mxCell id="pocePOjnKpJ1JZwsE6gp-49" value="Digital-оповещение&lt;div&gt;&amp;nbsp;клиентов&lt;/div&gt;" style="connectable=0;recursiveResize=0;strokeColor=inherit;fillColor=#A7C942;align=center;fontStyle=1;fontColor=#FFFFFF;html=1;" parent="YgdcgZc3MoA_H59l_4bB-16" vertex="1">
          <mxGeometry x="380" width="170" height="40" as="geometry">
            <mxRectangle width="170" height="40" as="alternateBounds" />
          </mxGeometry>
        </mxCell>
        <mxCell id="YgdcgZc3MoA_H59l_4bB-19" value="Обслуживание депозитных&amp;nbsp;&lt;div&gt;процессов&lt;/div&gt;" style="connectable=0;recursiveResize=0;strokeColor=inherit;fillColor=#A7C942;align=center;fontStyle=1;fontColor=#FFFFFF;html=1;" parent="YgdcgZc3MoA_H59l_4bB-16" vertex="1">
          <mxGeometry x="550" width="200" height="40" as="geometry">
            <mxRectangle width="200" height="40" as="alternateBounds" />
          </mxGeometry>
        </mxCell>
        <mxCell id="pocePOjnKpJ1JZwsE6gp-17" value="&lt;div&gt;&lt;span style=&quot;background-color: transparent; color: light-dark(rgb(255, 255, 255), rgb(18, 18, 18));&quot;&gt;Обслуживание кредитных&amp;nbsp;&lt;/span&gt;&lt;/div&gt;&lt;div&gt;процессов&lt;/div&gt;" style="connectable=0;recursiveResize=0;strokeColor=inherit;fillColor=#A7C942;align=center;fontStyle=1;fontColor=#FFFFFF;html=1;" parent="YgdcgZc3MoA_H59l_4bB-16" vertex="1">
          <mxGeometry x="750" width="200" height="40" as="geometry">
            <mxRectangle width="200" height="40" as="alternateBounds" />
          </mxGeometry>
        </mxCell>
        <mxCell id="pocePOjnKpJ1JZwsE6gp-25" value="&lt;div&gt;&lt;span style=&quot;background-color: transparent; color: light-dark(rgb(255, 255, 255), rgb(18, 18, 18));&quot;&gt;Продажи в сети отделений&lt;/span&gt;&lt;/div&gt;" style="connectable=0;recursiveResize=0;strokeColor=inherit;fillColor=#A7C942;align=center;fontStyle=1;fontColor=#FFFFFF;html=1;" parent="YgdcgZc3MoA_H59l_4bB-16" vertex="1">
          <mxGeometry x="950" width="200" height="40" as="geometry">
            <mxRectangle width="200" height="40" as="alternateBounds" />
          </mxGeometry>
        </mxCell>
        <mxCell id="pocePOjnKpJ1JZwsE6gp-33" value="Управление договорами" style="connectable=0;recursiveResize=0;strokeColor=inherit;fillColor=#A7C942;align=center;fontStyle=1;fontColor=#FFFFFF;html=1;" parent="YgdcgZc3MoA_H59l_4bB-16" vertex="1">
          <mxGeometry x="1150" width="200" height="40" as="geometry">
            <mxRectangle width="200" height="40" as="alternateBounds" />
          </mxGeometry>
        </mxCell>
        <mxCell id="YgdcgZc3MoA_H59l_4bB-20" value="" style="shape=tableRow;horizontal=0;startSize=0;swimlaneHead=0;swimlaneBody=0;top=0;left=0;bottom=0;right=0;dropTarget=0;collapsible=0;recursiveResize=0;expand=0;fontStyle=0;strokeColor=inherit;fillColor=#ffffff;" parent="YgdcgZc3MoA_H59l_4bB-15" vertex="1">
          <mxGeometry y="40" width="1350" height="80" as="geometry" />
        </mxCell>
        <mxCell id="YgdcgZc3MoA_H59l_4bB-21" value="&lt;div&gt;Управление обслуживанием&lt;/div&gt;&lt;div&gt;в сети отделений&lt;/div&gt;" style="connectable=0;recursiveResize=0;strokeColor=#9673a6;fillColor=#e1d5e7;align=center;whiteSpace=wrap;html=1;" parent="YgdcgZc3MoA_H59l_4bB-20" vertex="1">
          <mxGeometry width="210" height="80" as="geometry">
            <mxRectangle width="210" height="80" as="alternateBounds" />
          </mxGeometry>
        </mxCell>
        <mxCell id="YgdcgZc3MoA_H59l_4bB-22" value="" style="connectable=0;recursiveResize=0;strokeColor=#666666;fillColor=#f5f5f5;align=center;whiteSpace=wrap;html=1;fontColor=#333333;" parent="YgdcgZc3MoA_H59l_4bB-20" vertex="1">
          <mxGeometry x="210" width="170" height="80" as="geometry">
            <mxRectangle width="170" height="80" as="alternateBounds" />
          </mxGeometry>
        </mxCell>
        <mxCell id="pocePOjnKpJ1JZwsE6gp-50" style="connectable=0;recursiveResize=0;strokeColor=#666666;fillColor=#f5f5f5;align=center;whiteSpace=wrap;html=1;fontColor=#333333;" parent="YgdcgZc3MoA_H59l_4bB-20" vertex="1">
          <mxGeometry x="380" width="170" height="80" as="geometry">
            <mxRectangle width="170" height="80" as="alternateBounds" />
          </mxGeometry>
        </mxCell>
        <mxCell id="YgdcgZc3MoA_H59l_4bB-23" value="" style="connectable=0;recursiveResize=0;strokeColor=#666666;fillColor=#f5f5f5;align=center;whiteSpace=wrap;html=1;fontColor=#333333;" parent="YgdcgZc3MoA_H59l_4bB-20" vertex="1">
          <mxGeometry x="550" width="200" height="80" as="geometry">
            <mxRectangle width="200" height="80" as="alternateBounds" />
          </mxGeometry>
        </mxCell>
        <mxCell id="pocePOjnKpJ1JZwsE6gp-18" style="connectable=0;recursiveResize=0;strokeColor=#666666;fillColor=#f5f5f5;align=center;whiteSpace=wrap;html=1;fontColor=#333333;" parent="YgdcgZc3MoA_H59l_4bB-20" vertex="1">
          <mxGeometry x="750" width="200" height="80" as="geometry">
            <mxRectangle width="200" height="80" as="alternateBounds" />
          </mxGeometry>
        </mxCell>
        <mxCell id="pocePOjnKpJ1JZwsE6gp-26" style="connectable=0;recursiveResize=0;strokeColor=#666666;fillColor=#f5f5f5;align=center;whiteSpace=wrap;html=1;fontColor=#333333;" parent="YgdcgZc3MoA_H59l_4bB-20" vertex="1">
          <mxGeometry x="950" width="200" height="80" as="geometry">
            <mxRectangle width="200" height="80" as="alternateBounds" />
          </mxGeometry>
        </mxCell>
        <mxCell id="pocePOjnKpJ1JZwsE6gp-34" style="connectable=0;recursiveResize=0;strokeColor=#666666;fillColor=#f5f5f5;align=center;whiteSpace=wrap;html=1;fontColor=#333333;" parent="YgdcgZc3MoA_H59l_4bB-20" vertex="1">
          <mxGeometry x="1150" width="200" height="80" as="geometry">
            <mxRectangle width="200" height="80" as="alternateBounds" />
          </mxGeometry>
        </mxCell>
        <mxCell id="YgdcgZc3MoA_H59l_4bB-24" value="" style="shape=tableRow;horizontal=0;startSize=0;swimlaneHead=0;swimlaneBody=0;top=0;left=0;bottom=0;right=0;dropTarget=0;collapsible=0;recursiveResize=0;expand=0;fontStyle=1;strokeColor=inherit;fillColor=#EAF2D3;" parent="YgdcgZc3MoA_H59l_4bB-15" vertex="1">
          <mxGeometry y="120" width="1350" height="89" as="geometry" />
        </mxCell>
        <mxCell id="YgdcgZc3MoA_H59l_4bB-25" value="Управление обслуживанием кредитных продуктов" style="connectable=0;recursiveResize=0;strokeColor=#9673a6;fillColor=#e1d5e7;whiteSpace=wrap;html=1;" parent="YgdcgZc3MoA_H59l_4bB-24" vertex="1">
          <mxGeometry width="210" height="89" as="geometry">
            <mxRectangle width="210" height="89" as="alternateBounds" />
          </mxGeometry>
        </mxCell>
        <mxCell id="YgdcgZc3MoA_H59l_4bB-26" value="" style="connectable=0;recursiveResize=0;strokeColor=#666666;fillColor=#f5f5f5;whiteSpace=wrap;html=1;fontColor=#333333;" parent="YgdcgZc3MoA_H59l_4bB-24" vertex="1">
          <mxGeometry x="210" width="170" height="89" as="geometry">
            <mxRectangle width="170" height="89" as="alternateBounds" />
          </mxGeometry>
        </mxCell>
        <mxCell id="pocePOjnKpJ1JZwsE6gp-51" style="connectable=0;recursiveResize=0;strokeColor=#666666;fillColor=#f5f5f5;whiteSpace=wrap;html=1;fontColor=#333333;" parent="YgdcgZc3MoA_H59l_4bB-24" vertex="1">
          <mxGeometry x="380" width="170" height="89" as="geometry">
            <mxRectangle width="170" height="89" as="alternateBounds" />
          </mxGeometry>
        </mxCell>
        <mxCell id="YgdcgZc3MoA_H59l_4bB-27" value="" style="connectable=0;recursiveResize=0;strokeColor=#666666;fillColor=#f5f5f5;whiteSpace=wrap;html=1;fontColor=#333333;" parent="YgdcgZc3MoA_H59l_4bB-24" vertex="1">
          <mxGeometry x="550" width="200" height="89" as="geometry">
            <mxRectangle width="200" height="89" as="alternateBounds" />
          </mxGeometry>
        </mxCell>
        <mxCell id="pocePOjnKpJ1JZwsE6gp-19" style="connectable=0;recursiveResize=0;strokeColor=#666666;fillColor=#f5f5f5;whiteSpace=wrap;html=1;fontColor=#333333;" parent="YgdcgZc3MoA_H59l_4bB-24" vertex="1">
          <mxGeometry x="750" width="200" height="89" as="geometry">
            <mxRectangle width="200" height="89" as="alternateBounds" />
          </mxGeometry>
        </mxCell>
        <mxCell id="pocePOjnKpJ1JZwsE6gp-27" style="connectable=0;recursiveResize=0;strokeColor=#666666;fillColor=#f5f5f5;whiteSpace=wrap;html=1;fontColor=#333333;" parent="YgdcgZc3MoA_H59l_4bB-24" vertex="1">
          <mxGeometry x="950" width="200" height="89" as="geometry">
            <mxRectangle width="200" height="89" as="alternateBounds" />
          </mxGeometry>
        </mxCell>
        <mxCell id="pocePOjnKpJ1JZwsE6gp-35" style="connectable=0;recursiveResize=0;strokeColor=#666666;fillColor=#f5f5f5;whiteSpace=wrap;html=1;fontColor=#333333;" parent="YgdcgZc3MoA_H59l_4bB-24" vertex="1">
          <mxGeometry x="1150" width="200" height="89" as="geometry">
            <mxRectangle width="200" height="89" as="alternateBounds" />
          </mxGeometry>
        </mxCell>
        <mxCell id="YgdcgZc3MoA_H59l_4bB-28" value="" style="shape=tableRow;horizontal=0;startSize=0;swimlaneHead=0;swimlaneBody=0;top=0;left=0;bottom=0;right=0;dropTarget=0;collapsible=0;recursiveResize=0;expand=0;fontStyle=0;strokeColor=inherit;fillColor=#ffffff;" parent="YgdcgZc3MoA_H59l_4bB-15" vertex="1">
          <mxGeometry y="209" width="1350" height="171" as="geometry" />
        </mxCell>
        <mxCell id="YgdcgZc3MoA_H59l_4bB-29" value="Управление обслуживанием депозитных продуктов" style="connectable=0;recursiveResize=0;strokeColor=#9673a6;fillColor=#e1d5e7;fontStyle=0;align=center;whiteSpace=wrap;html=1;" parent="YgdcgZc3MoA_H59l_4bB-28" vertex="1">
          <mxGeometry width="210" height="171" as="geometry">
            <mxRectangle width="210" height="171" as="alternateBounds" />
          </mxGeometry>
        </mxCell>
        <mxCell id="YgdcgZc3MoA_H59l_4bB-30" value="" style="connectable=0;recursiveResize=0;strokeColor=#666666;fillColor=#f5f5f5;fontStyle=0;align=center;whiteSpace=wrap;html=1;fontColor=#333333;" parent="YgdcgZc3MoA_H59l_4bB-28" vertex="1">
          <mxGeometry x="210" width="170" height="171" as="geometry">
            <mxRectangle width="170" height="171" as="alternateBounds" />
          </mxGeometry>
        </mxCell>
        <mxCell id="pocePOjnKpJ1JZwsE6gp-52" style="connectable=0;recursiveResize=0;strokeColor=#666666;fillColor=#f5f5f5;fontStyle=0;align=center;whiteSpace=wrap;html=1;fontColor=#333333;" parent="YgdcgZc3MoA_H59l_4bB-28" vertex="1">
          <mxGeometry x="380" width="170" height="171" as="geometry">
            <mxRectangle width="170" height="171" as="alternateBounds" />
          </mxGeometry>
        </mxCell>
        <mxCell id="YgdcgZc3MoA_H59l_4bB-31" value="" style="connectable=0;recursiveResize=0;strokeColor=#666666;fillColor=#f5f5f5;fontStyle=0;align=center;whiteSpace=wrap;html=1;fontColor=#333333;" parent="YgdcgZc3MoA_H59l_4bB-28" vertex="1">
          <mxGeometry x="550" width="200" height="171" as="geometry">
            <mxRectangle width="200" height="171" as="alternateBounds" />
          </mxGeometry>
        </mxCell>
        <mxCell id="pocePOjnKpJ1JZwsE6gp-20" style="connectable=0;recursiveResize=0;strokeColor=#666666;fillColor=#f5f5f5;fontStyle=0;align=center;whiteSpace=wrap;html=1;fontColor=#333333;" parent="YgdcgZc3MoA_H59l_4bB-28" vertex="1">
          <mxGeometry x="750" width="200" height="171" as="geometry">
            <mxRectangle width="200" height="171" as="alternateBounds" />
          </mxGeometry>
        </mxCell>
        <mxCell id="pocePOjnKpJ1JZwsE6gp-28" style="connectable=0;recursiveResize=0;strokeColor=#666666;fillColor=#f5f5f5;fontStyle=0;align=center;whiteSpace=wrap;html=1;fontColor=#333333;" parent="YgdcgZc3MoA_H59l_4bB-28" vertex="1">
          <mxGeometry x="950" width="200" height="171" as="geometry">
            <mxRectangle width="200" height="171" as="alternateBounds" />
          </mxGeometry>
        </mxCell>
        <mxCell id="pocePOjnKpJ1JZwsE6gp-36" style="connectable=0;recursiveResize=0;strokeColor=#666666;fillColor=#f5f5f5;fontStyle=0;align=center;whiteSpace=wrap;html=1;fontColor=#333333;" parent="YgdcgZc3MoA_H59l_4bB-28" vertex="1">
          <mxGeometry x="1150" width="200" height="171" as="geometry">
            <mxRectangle width="200" height="171" as="alternateBounds" />
          </mxGeometry>
        </mxCell>
        <mxCell id="YgdcgZc3MoA_H59l_4bB-32" value="" style="shape=tableRow;horizontal=0;startSize=0;swimlaneHead=0;swimlaneBody=0;top=0;left=0;bottom=0;right=0;dropTarget=0;collapsible=0;recursiveResize=0;expand=0;fontStyle=1;strokeColor=inherit;fillColor=#EAF2D3;" parent="YgdcgZc3MoA_H59l_4bB-15" vertex="1">
          <mxGeometry y="380" width="1350" height="119" as="geometry" />
        </mxCell>
        <mxCell id="YgdcgZc3MoA_H59l_4bB-33" value="Управление IT" style="connectable=0;recursiveResize=0;strokeColor=#9673a6;fillColor=#e1d5e7;whiteSpace=wrap;html=1;" parent="YgdcgZc3MoA_H59l_4bB-32" vertex="1">
          <mxGeometry width="210" height="119" as="geometry">
            <mxRectangle width="210" height="119" as="alternateBounds" />
          </mxGeometry>
        </mxCell>
        <mxCell id="YgdcgZc3MoA_H59l_4bB-34" value="" style="connectable=0;recursiveResize=0;strokeColor=#666666;fillColor=#f5f5f5;whiteSpace=wrap;html=1;fontColor=#333333;" parent="YgdcgZc3MoA_H59l_4bB-32" vertex="1">
          <mxGeometry x="210" width="170" height="119" as="geometry">
            <mxRectangle width="170" height="119" as="alternateBounds" />
          </mxGeometry>
        </mxCell>
        <mxCell id="pocePOjnKpJ1JZwsE6gp-53" style="connectable=0;recursiveResize=0;strokeColor=#666666;fillColor=#f5f5f5;whiteSpace=wrap;html=1;fontColor=#333333;" parent="YgdcgZc3MoA_H59l_4bB-32" vertex="1">
          <mxGeometry x="380" width="170" height="119" as="geometry">
            <mxRectangle width="170" height="119" as="alternateBounds" />
          </mxGeometry>
        </mxCell>
        <mxCell id="YgdcgZc3MoA_H59l_4bB-35" value="" style="connectable=0;recursiveResize=0;strokeColor=#666666;fillColor=#f5f5f5;whiteSpace=wrap;html=1;fontColor=#333333;" parent="YgdcgZc3MoA_H59l_4bB-32" vertex="1">
          <mxGeometry x="550" width="200" height="119" as="geometry">
            <mxRectangle width="200" height="119" as="alternateBounds" />
          </mxGeometry>
        </mxCell>
        <mxCell id="pocePOjnKpJ1JZwsE6gp-21" style="connectable=0;recursiveResize=0;strokeColor=#666666;fillColor=#f5f5f5;whiteSpace=wrap;html=1;fontColor=#333333;" parent="YgdcgZc3MoA_H59l_4bB-32" vertex="1">
          <mxGeometry x="750" width="200" height="119" as="geometry">
            <mxRectangle width="200" height="119" as="alternateBounds" />
          </mxGeometry>
        </mxCell>
        <mxCell id="pocePOjnKpJ1JZwsE6gp-29" style="connectable=0;recursiveResize=0;strokeColor=#666666;fillColor=#f5f5f5;whiteSpace=wrap;html=1;fontColor=#333333;" parent="YgdcgZc3MoA_H59l_4bB-32" vertex="1">
          <mxGeometry x="950" width="200" height="119" as="geometry">
            <mxRectangle width="200" height="119" as="alternateBounds" />
          </mxGeometry>
        </mxCell>
        <mxCell id="pocePOjnKpJ1JZwsE6gp-37" style="connectable=0;recursiveResize=0;strokeColor=#666666;fillColor=#f5f5f5;whiteSpace=wrap;html=1;fontColor=#333333;" parent="YgdcgZc3MoA_H59l_4bB-32" vertex="1">
          <mxGeometry x="1150" width="200" height="119" as="geometry">
            <mxRectangle width="200" height="119" as="alternateBounds" />
          </mxGeometry>
        </mxCell>
        <mxCell id="YgdcgZc3MoA_H59l_4bB-36" style="shape=tableRow;horizontal=0;startSize=0;swimlaneHead=0;swimlaneBody=0;top=0;left=0;bottom=0;right=0;dropTarget=0;collapsible=0;recursiveResize=0;expand=0;fontStyle=1;strokeColor=#d6b656;fillColor=#fff2cc;" parent="YgdcgZc3MoA_H59l_4bB-15" vertex="1">
          <mxGeometry y="499" width="1350" height="81" as="geometry" />
        </mxCell>
        <mxCell id="YgdcgZc3MoA_H59l_4bB-37" value="Кол-центр банка «Стандарт»" style="connectable=0;recursiveResize=0;strokeColor=#9673a6;fillColor=#e1d5e7;fontStyle=0;align=center;whiteSpace=wrap;html=1;" parent="YgdcgZc3MoA_H59l_4bB-36" vertex="1">
          <mxGeometry width="210" height="81" as="geometry">
            <mxRectangle width="210" height="81" as="alternateBounds" />
          </mxGeometry>
        </mxCell>
        <mxCell id="YgdcgZc3MoA_H59l_4bB-38" style="connectable=0;recursiveResize=0;whiteSpace=wrap;html=1;fillColor=#f5f5f5;strokeColor=#666666;align=center;verticalAlign=middle;fontFamily=Helvetica;fontSize=12;fontColor=#333333;fontStyle=0;" parent="YgdcgZc3MoA_H59l_4bB-36" vertex="1">
          <mxGeometry x="210" width="170" height="81" as="geometry">
            <mxRectangle width="170" height="81" as="alternateBounds" />
          </mxGeometry>
        </mxCell>
        <mxCell id="pocePOjnKpJ1JZwsE6gp-54" style="connectable=0;recursiveResize=0;whiteSpace=wrap;html=1;fillColor=#f5f5f5;strokeColor=#666666;align=center;verticalAlign=middle;fontFamily=Helvetica;fontSize=12;fontColor=#333333;fontStyle=0;" parent="YgdcgZc3MoA_H59l_4bB-36" vertex="1">
          <mxGeometry x="380" width="170" height="81" as="geometry">
            <mxRectangle width="170" height="81" as="alternateBounds" />
          </mxGeometry>
        </mxCell>
        <mxCell id="YgdcgZc3MoA_H59l_4bB-39" style="connectable=0;recursiveResize=0;whiteSpace=wrap;html=1;fillColor=#f5f5f5;strokeColor=#666666;align=center;verticalAlign=middle;fontFamily=Helvetica;fontSize=12;fontColor=#333333;fontStyle=0;" parent="YgdcgZc3MoA_H59l_4bB-36" vertex="1">
          <mxGeometry x="550" width="200" height="81" as="geometry">
            <mxRectangle width="200" height="81" as="alternateBounds" />
          </mxGeometry>
        </mxCell>
        <mxCell id="pocePOjnKpJ1JZwsE6gp-22" style="connectable=0;recursiveResize=0;whiteSpace=wrap;html=1;fillColor=#f5f5f5;strokeColor=#666666;align=center;verticalAlign=middle;fontFamily=Helvetica;fontSize=12;fontColor=#333333;fontStyle=0;" parent="YgdcgZc3MoA_H59l_4bB-36" vertex="1">
          <mxGeometry x="750" width="200" height="81" as="geometry">
            <mxRectangle width="200" height="81" as="alternateBounds" />
          </mxGeometry>
        </mxCell>
        <mxCell id="pocePOjnKpJ1JZwsE6gp-30" style="connectable=0;recursiveResize=0;whiteSpace=wrap;html=1;fillColor=#f5f5f5;strokeColor=#666666;align=center;verticalAlign=middle;fontFamily=Helvetica;fontSize=12;fontColor=#333333;fontStyle=0;" parent="YgdcgZc3MoA_H59l_4bB-36" vertex="1">
          <mxGeometry x="950" width="200" height="81" as="geometry">
            <mxRectangle width="200" height="81" as="alternateBounds" />
          </mxGeometry>
        </mxCell>
        <mxCell id="pocePOjnKpJ1JZwsE6gp-38" style="connectable=0;recursiveResize=0;whiteSpace=wrap;html=1;fillColor=#f5f5f5;strokeColor=#666666;align=center;verticalAlign=middle;fontFamily=Helvetica;fontSize=12;fontColor=#333333;fontStyle=0;" parent="YgdcgZc3MoA_H59l_4bB-36" vertex="1">
          <mxGeometry x="1150" width="200" height="81" as="geometry">
            <mxRectangle width="200" height="81" as="alternateBounds" />
          </mxGeometry>
        </mxCell>
        <mxCell id="YgdcgZc3MoA_H59l_4bB-40" style="shape=tableRow;horizontal=0;startSize=0;swimlaneHead=0;swimlaneBody=0;top=0;left=0;bottom=0;right=0;dropTarget=0;collapsible=0;recursiveResize=0;expand=0;fontStyle=1;strokeColor=inherit;fillColor=#EAF2D3;" parent="YgdcgZc3MoA_H59l_4bB-15" vertex="1">
          <mxGeometry y="580" width="1350" height="81" as="geometry" />
        </mxCell>
        <mxCell id="YgdcgZc3MoA_H59l_4bB-41" value="Партнёрский кол-центр" style="connectable=0;recursiveResize=0;strokeColor=#9673a6;fillColor=#e1d5e7;whiteSpace=wrap;html=1;" parent="YgdcgZc3MoA_H59l_4bB-40" vertex="1">
          <mxGeometry width="210" height="81" as="geometry">
            <mxRectangle width="210" height="81" as="alternateBounds" />
          </mxGeometry>
        </mxCell>
        <mxCell id="YgdcgZc3MoA_H59l_4bB-42" style="connectable=0;recursiveResize=0;strokeColor=#666666;fillColor=#f5f5f5;whiteSpace=wrap;html=1;fontColor=#333333;" parent="YgdcgZc3MoA_H59l_4bB-40" vertex="1">
          <mxGeometry x="210" width="170" height="81" as="geometry">
            <mxRectangle width="170" height="81" as="alternateBounds" />
          </mxGeometry>
        </mxCell>
        <mxCell id="pocePOjnKpJ1JZwsE6gp-55" style="connectable=0;recursiveResize=0;strokeColor=#666666;fillColor=#f5f5f5;whiteSpace=wrap;html=1;fontColor=#333333;" parent="YgdcgZc3MoA_H59l_4bB-40" vertex="1">
          <mxGeometry x="380" width="170" height="81" as="geometry">
            <mxRectangle width="170" height="81" as="alternateBounds" />
          </mxGeometry>
        </mxCell>
        <mxCell id="YgdcgZc3MoA_H59l_4bB-43" style="connectable=0;recursiveResize=0;strokeColor=#666666;fillColor=#f5f5f5;whiteSpace=wrap;html=1;fontColor=#333333;" parent="YgdcgZc3MoA_H59l_4bB-40" vertex="1">
          <mxGeometry x="550" width="200" height="81" as="geometry">
            <mxRectangle width="200" height="81" as="alternateBounds" />
          </mxGeometry>
        </mxCell>
        <mxCell id="pocePOjnKpJ1JZwsE6gp-23" style="connectable=0;recursiveResize=0;strokeColor=#666666;fillColor=#f5f5f5;whiteSpace=wrap;html=1;fontColor=#333333;" parent="YgdcgZc3MoA_H59l_4bB-40" vertex="1">
          <mxGeometry x="750" width="200" height="81" as="geometry">
            <mxRectangle width="200" height="81" as="alternateBounds" />
          </mxGeometry>
        </mxCell>
        <mxCell id="pocePOjnKpJ1JZwsE6gp-31" style="connectable=0;recursiveResize=0;strokeColor=#666666;fillColor=#f5f5f5;whiteSpace=wrap;html=1;fontColor=#333333;" parent="YgdcgZc3MoA_H59l_4bB-40" vertex="1">
          <mxGeometry x="950" width="200" height="81" as="geometry">
            <mxRectangle width="200" height="81" as="alternateBounds" />
          </mxGeometry>
        </mxCell>
        <mxCell id="pocePOjnKpJ1JZwsE6gp-39" style="connectable=0;recursiveResize=0;strokeColor=#666666;fillColor=#f5f5f5;whiteSpace=wrap;html=1;fontColor=#333333;" parent="YgdcgZc3MoA_H59l_4bB-40" vertex="1">
          <mxGeometry x="1150" width="200" height="81" as="geometry">
            <mxRectangle width="200" height="81" as="alternateBounds" />
          </mxGeometry>
        </mxCell>
        <mxCell id="YgdcgZc3MoA_H59l_4bB-44" style="shape=tableRow;horizontal=0;startSize=0;swimlaneHead=0;swimlaneBody=0;top=0;left=0;bottom=0;right=0;dropTarget=0;collapsible=0;recursiveResize=0;expand=0;fontStyle=1;strokeColor=inherit;fillColor=#EAF2D3;" parent="YgdcgZc3MoA_H59l_4bB-15" vertex="1">
          <mxGeometry y="661" width="1350" height="81" as="geometry" />
        </mxCell>
        <mxCell id="YgdcgZc3MoA_H59l_4bB-45" value="Команда цифровой трансформации розничного бизнеса" style="connectable=0;recursiveResize=0;strokeColor=#9673a6;fillColor=#e1d5e7;whiteSpace=wrap;html=1;align=center;verticalAlign=middle;fontFamily=Helvetica;fontSize=12;fontStyle=0;" parent="YgdcgZc3MoA_H59l_4bB-44" vertex="1">
          <mxGeometry width="210" height="81" as="geometry">
            <mxRectangle width="210" height="81" as="alternateBounds" />
          </mxGeometry>
        </mxCell>
        <mxCell id="YgdcgZc3MoA_H59l_4bB-46" style="connectable=0;recursiveResize=0;strokeColor=#666666;fillColor=#f5f5f5;whiteSpace=wrap;html=1;align=center;verticalAlign=middle;fontFamily=Helvetica;fontSize=12;fontStyle=0;fontColor=#333333;" parent="YgdcgZc3MoA_H59l_4bB-44" vertex="1">
          <mxGeometry x="210" width="170" height="81" as="geometry">
            <mxRectangle width="170" height="81" as="alternateBounds" />
          </mxGeometry>
        </mxCell>
        <mxCell id="pocePOjnKpJ1JZwsE6gp-56" style="connectable=0;recursiveResize=0;strokeColor=#666666;fillColor=#f5f5f5;whiteSpace=wrap;html=1;align=center;verticalAlign=middle;fontFamily=Helvetica;fontSize=12;fontStyle=0;fontColor=#333333;" parent="YgdcgZc3MoA_H59l_4bB-44" vertex="1">
          <mxGeometry x="380" width="170" height="81" as="geometry">
            <mxRectangle width="170" height="81" as="alternateBounds" />
          </mxGeometry>
        </mxCell>
        <mxCell id="YgdcgZc3MoA_H59l_4bB-47" style="connectable=0;recursiveResize=0;strokeColor=#666666;fillColor=#f5f5f5;whiteSpace=wrap;html=1;align=center;verticalAlign=middle;fontFamily=Helvetica;fontSize=12;fontStyle=0;fontColor=#333333;" parent="YgdcgZc3MoA_H59l_4bB-44" vertex="1">
          <mxGeometry x="550" width="200" height="81" as="geometry">
            <mxRectangle width="200" height="81" as="alternateBounds" />
          </mxGeometry>
        </mxCell>
        <mxCell id="pocePOjnKpJ1JZwsE6gp-24" style="connectable=0;recursiveResize=0;strokeColor=#666666;fillColor=#f5f5f5;whiteSpace=wrap;html=1;align=center;verticalAlign=middle;fontFamily=Helvetica;fontSize=12;fontStyle=0;fontColor=#333333;" parent="YgdcgZc3MoA_H59l_4bB-44" vertex="1">
          <mxGeometry x="750" width="200" height="81" as="geometry">
            <mxRectangle width="200" height="81" as="alternateBounds" />
          </mxGeometry>
        </mxCell>
        <mxCell id="pocePOjnKpJ1JZwsE6gp-32" style="connectable=0;recursiveResize=0;strokeColor=#666666;fillColor=#f5f5f5;whiteSpace=wrap;html=1;align=center;verticalAlign=middle;fontFamily=Helvetica;fontSize=12;fontStyle=0;fontColor=#333333;" parent="YgdcgZc3MoA_H59l_4bB-44" vertex="1">
          <mxGeometry x="950" width="200" height="81" as="geometry">
            <mxRectangle width="200" height="81" as="alternateBounds" />
          </mxGeometry>
        </mxCell>
        <mxCell id="pocePOjnKpJ1JZwsE6gp-40" style="connectable=0;recursiveResize=0;strokeColor=#666666;fillColor=#f5f5f5;whiteSpace=wrap;html=1;align=center;verticalAlign=middle;fontFamily=Helvetica;fontSize=12;fontStyle=0;fontColor=#333333;" parent="YgdcgZc3MoA_H59l_4bB-44" vertex="1">
          <mxGeometry x="1150" width="200" height="81" as="geometry">
            <mxRectangle width="200" height="81" as="alternateBounds" />
          </mxGeometry>
        </mxCell>
        <mxCell id="pocePOjnKpJ1JZwsE6gp-57" value="Автоматизированная банковская система" style="rounded=1;whiteSpace=wrap;html=1;" parent="1" vertex="1">
          <mxGeometry x="610" y="260" width="950" height="440" as="geometry" />
        </mxCell>
        <mxCell id="pocePOjnKpJ1JZwsE6gp-58" value="Смс шлюз" style="rounded=1;whiteSpace=wrap;html=1;fillColor=#dae8fc;strokeColor=#6c8ebf;" parent="1" vertex="1">
          <mxGeometry x="610" y="598" width="150" height="50" as="geometry" />
        </mxCell>
        <mxCell id="pocePOjnKpJ1JZwsE6gp-59" value="Система колл-центра" style="rounded=1;whiteSpace=wrap;html=1;fillColor=#dae8fc;strokeColor=#6c8ebf;" parent="1" vertex="1">
          <mxGeometry x="440" y="720" width="150" height="60" as="geometry" />
        </mxCell>
        <mxCell id="pocePOjnKpJ1JZwsE6gp-60" value="Система партнерского&lt;div&gt;колл-центра&lt;/div&gt;" style="rounded=1;whiteSpace=wrap;html=1;fillColor=#dae8fc;strokeColor=#6c8ebf;" parent="1" vertex="1">
          <mxGeometry x="440" y="800" width="150" height="60" as="geometry" />
        </mxCell>
        <mxCell id="pocePOjnKpJ1JZwsE6gp-61" value="Телеком-оператор" style="rounded=1;whiteSpace=wrap;html=1;fillColor=#dae8fc;strokeColor=#6c8ebf;" parent="1" vertex="1">
          <mxGeometry x="610" y="652" width="150" height="50" as="geometry" />
        </mxCell>
        <mxCell id="pocePOjnKpJ1JZwsE6gp-64" value="Интернет-банк" style="rounded=1;whiteSpace=wrap;html=1;fillColor=#dae8fc;strokeColor=#6c8ebf;" parent="1" vertex="1">
          <mxGeometry x="780" y="430" width="180" height="60" as="geometry" />
        </mxCell>
        <mxCell id="pocePOjnKpJ1JZwsE6gp-65" value="Сайт" style="rounded=1;whiteSpace=wrap;html=1;fillColor=#dae8fc;strokeColor=#6c8ebf;" parent="1" vertex="1">
          <mxGeometry x="780" y="500" width="180" height="50" as="geometry" />
        </mxCell>
      </root>
    </mxGraphModel>
  </diagram>
</mxfile>
